<?xml version="1.0" encoding="UTF-8" standalone="no"?>
<svg
   height="128"
   width="128"
   version="1.1"
   id="svg7"
   sodipodi:docname="icon.svg"
   inkscape:version="1.3 (0e150ed6c4, 2023-07-21)"
   xmlns:inkscape="http://www.inkscape.org/namespaces/inkscape"
   xmlns:sodipodi="http://sodipodi.sourceforge.net/DTD/sodipodi-0.dtd"
   xmlns="http://www.w3.org/2000/svg"
   xmlns:svg="http://www.w3.org/2000/svg">
  <defs
     id="defs7" />
  <sodipodi:namedview
     id="namedview7"
     pagecolor="#ffffff"
     bordercolor="#000000"
     borderopacity="0.25"
     inkscape:showpageshadow="2"
     inkscape:pageopacity="0.0"
     inkscape:pagecheckerboard="0"
     inkscape:deskcolor="#d1d1d1"
     inkscape:zoom="5.2281016"
     inkscape:cx="69.528106"
     inkscape:cy="73.353586"
     inkscape:window-width="2240"
     inkscape:window-height="1331"
     inkscape:window-x="0"
     inkscape:window-y="0"
     inkscape:window-maximized="1"
     inkscape:current-layer="svg7" />
  <rect
     x="2"
     y="2"
     width="124"
     height="124"
     rx="14"
     fill="#363d52"
     stroke="#212532"
     stroke-width="4"
     id="rect1" />
  <path
     d="m 81.992827,99.564098 c 0.813803,-1.965537 2.882401,-3.722753 3.886798,-5.061948 1.004397,-1.339195 1.506595,-3.068989 1.506595,-5.189382 0,-4.687184 -1.171796,-8.537371 -3.515388,-11.55056 -2.343592,-3.013189 -5.356782,-5.468381 -9.039569,-7.365574 -3.571187,-2.008793 -7.477174,-3.515388 -11.717959,-4.519785 -4.240785,-1.004397 -8.146772,-1.952993 -11.71796,-2.84579 -3.571187,-0.892797 -6.584377,-1.729794 -9.039569,-2.510991 -2.343592,-0.781197 -3.515388,-1.952993 -3.515388,-3.515388 0,-0.223199 0.0558,-0.390599 0.1674,-0.502198 0.111599,-0.1116 0.167399,-0.2232 0.167399,-0.334799 0.223199,-0.334799 0.725398,-0.892798 1.506595,-1.673995 l 1.673994,-1.673994 c 1.115996,-0.223199 2.78999,-0.502198 5.021983,-0.836997 2.231992,-0.446399 4.631384,-0.948597 7.198175,-1.506595 2.678391,-0.669597 5.356781,-1.450795 8.035172,-2.343592 2.678391,-0.892797 5.133582,-1.897193 7.365575,-3.013189 2.231992,-1.227596 4.073386,-2.622591 5.524181,-4.184986 1.450795,-1.673994 2.176192,-3.571187 2.176192,-5.69158 0,-1.673994 -0.669598,-3.013189 -2.008793,-4.017586 -1.339195,-1.115996 -2.90159,-1.952993 -4.687184,-2.510991 -1.673994,-0.669598 -3.459588,-1.060197 -5.356781,-1.171796 -1.785594,-0.223199 -3.236389,-0.334799 -4.352385,-0.334799 -1.115996,0 -2.73419,0.0558 -4.854583,0.167399 -2.120393,0 -4.240785,0.167399 -6.361178,0.502198 -2.008793,0.223199 -3.794387,0.557998 -5.356782,1.004397 -1.562395,0.334799 -2.343592,0.836997 -2.343592,1.506595 v 3.682787 c -2.566791,0 -4.575584,-0.613798 -6.026379,-1.841394 -1.450795,-1.227595 -2.176192,-3.124789 -2.176192,-5.69158 0,-1.115996 0.278999,-2.120392 0.836997,-3.013189 0.669597,-0.892797 1.506594,-1.673995 2.510991,-2.343592 1.004397,-0.669598 2.064593,-1.171796 3.180589,-1.506595 1.115996,-0.334799 2.176192,-0.502198 3.180589,-0.502198 h 24.272916 c 2.566791,0 4.910383,0.613798 7.030776,1.841393 2.231992,1.115996 4.129185,2.622591 5.69158,4.519785 1.562395,1.785593 2.734191,3.850186 3.515388,6.193778 0.892797,2.343592 1.339195,4.687184 1.339195,7.030776 0,2.343592 -0.781197,4.296585 -2.343591,5.85898 -1.450795,1.562395 -3.12479,2.95739 -5.021983,4.184985 -1.785594,1.227596 -3.459588,2.455192 -5.021983,3.682787 -1.562395,1.227596 -2.343592,2.734191 -2.343592,4.519785 0,0.111599 0.0558,0.223199 0.1674,0.334799 l 0.167399,0.334798 c 3.459588,1.227596 6.695977,2.90159 9.709167,5.021983 3.124789,2.120393 5.858979,4.575584 8.202571,7.365575 2.455192,2.78999 4.408185,5.858979 5.85898,9.206968 1.339195,3.236389 2.008793,6.751776 2.008793,10.546163 0,3.459588 -0.781197,6.472778 -2.343592,9.039569 -1.450795,2.455195 -3.403788,4.463985 -5.85898,6.026375 -2.343591,1.4508 -5.021982,2.5668 -8.035172,3.34799 0,0 0.02086,-5.97342 1.135185,-8.664802 z"
     id="text7"
     style="font-size:171.417px;font-family:'Indie Flower';-inkscape-font-specification:'Indie Flower';text-align:center;text-anchor:middle;fill:#00ffff;stroke-width:10;stroke-linecap:round;stroke-linejoin:round;paint-order:markers fill stroke"
     aria-label="3"
     sodipodi:nodetypes="assscsscsscscccsccscccscccscsscsssscccsccsscccccsccca" />
  <path
     d="m 74.831263,70.396634 c -3.571187,-2.008793 -7.477174,-3.515388 -11.717959,-4.519785 -4.240785,-1.004397 -8.146772,-1.952993 -11.71796,-2.84579 -3.571187,-0.892797 -6.584377,-1.729794 -9.039569,-2.510991 -2.343592,-0.781197 -3.515388,-1.952993 -3.515388,-3.515388 0,-0.223199 0.0558,-0.390599 0.1674,-0.502198 0.111599,-0.1116 0.167399,-0.2232 0.167399,-0.334799 0.223199,-0.334799 0.725398,-0.892798 1.506595,-1.673995 l 1.673994,-1.673994 c 1.115996,-0.223199 2.78999,-0.502198 5.021983,-0.836997 2.231992,-0.446399 4.631384,-0.948597 7.198175,-1.506595 2.678391,-0.669597 5.356781,-1.450795 8.035172,-2.343592 2.678391,-0.892797 5.133582,-1.897193 7.365575,-3.013189 2.231992,-1.227596 4.073386,-2.622591 5.524181,-4.184986 l 7.867773,3.682788 c -1.450795,1.562395 -3.12479,2.95739 -5.021983,4.184985 -1.785594,1.227596 -3.459588,2.455192 -5.021983,3.682787 -1.562395,1.227596 -2.343592,2.734191 -2.343592,4.519785 0,0.111599 0.0558,0.223199 0.1674,0.334799 l 0.167399,0.334798 c 3.459588,1.227596 6.695977,2.90159 9.709167,5.021983 3.124789,2.120393 5.858979,4.575584 8.202571,7.365575 -3.411851,3.376396 -10.172951,2.615956 -14.39635,0.334799 z"
     id="path7"
     style="font-size:171.417px;font-family:'Indie Flower';-inkscape-font-specification:'Indie Flower';text-align:center;text-anchor:middle;stroke-width:10;stroke-linecap:round;stroke-linejoin:round;paint-order:markers fill stroke;fill:#008000"
     aria-label="3"
     sodipodi:nodetypes="csscsscscccsccccssccccc" />
  <path
     d="m 31.140014,88.308372 c -0.111599,-0.223199 -0.167399,-0.390599 -0.167399,-0.502199 v -1.004396 c 0,-1.897193 0.502198,-3.459588 1.506594,-4.687184 3.047743,-3.065459 5.720275,-1.728187 8.035173,1.171796 1.673994,2.008793 3.850186,4.240786 6.528577,6.695977 2.789991,2.455191 6.082179,4.687184 9.876566,6.695977 3.905987,2.008793 8.481571,3.013189 13.726752,3.013189 2.008793,0 4.017587,-0.1116 6.02638,-0.334799 2.008793,-0.334799 3.794386,-0.892797 5.356781,-1.673994 1.562395,-0.781197 2.84579,-1.841394 3.850187,-3.180589 1.004397,-1.339195 1.506595,-3.068989 1.506595,-5.189382 l 9.709166,0.502198 c 0,3.459588 -0.781197,6.472778 -2.343592,9.039569 -1.450795,2.455195 -3.403788,4.463985 -5.85898,6.026375 -2.343591,1.4508 -5.021982,2.5668 -8.035172,3.34799 -2.90159,0.7812 -5.80318,1.1718 -8.70477,1.1718 -2.78999,-0.2232 -5.468381,-0.4464 -8.035172,-0.6696 -2.455191,-0.3348 -5.189382,-1.116 -8.202572,-2.34359 -3.013189,-1.33919 -6.472777,-3.40379 -10.378764,-6.19378 -3.905986,-2.78999 -8.704769,-6.751776 -14.39635,-11.885358 z"
     id="path8"
     style="font-size:171.417px;font-family:'Indie Flower';-inkscape-font-specification:'Indie Flower';text-align:center;text-anchor:middle;stroke-width:10;stroke-linecap:round;stroke-linejoin:round;paint-order:markers fill stroke;fill:#800000"
     aria-label="3"
     sodipodi:nodetypes="cssccccscssccccccccsc" />
</svg>
